<?xml version="1.0" encoding="UTF-8"?>
<svg width="25px" height="25px" viewBox="0 0 25 25" version="1.1" xmlns="http://www.w3.org/2000/svg" xmlns:xlink="http://www.w3.org/1999/xlink">
    <!-- Generator: Sketch 54.1 (76490) - https://sketchapp.com -->
    <title>Icon/Dark//Datasett</title>
    <desc>Created with Sketch.</desc>
    <defs>
        <path d="M0,9.14285714 L5.26315789,9.14285714 L5.26315789,4 L0,4 L0,9.14285714 Z M0,15.5714286 L5.26315789,15.5714286 L5.26315789,10.4285714 L0,10.4285714 L0,15.5714286 Z M6.57894737,15.5714286 L11.8421053,15.5714286 L11.8421053,10.4285714 L6.57894737,10.4285714 L6.57894737,15.5714286 Z M13.1578947,15.5714286 L18.4210526,15.5714286 L18.4210526,10.4285714 L13.1578947,10.4285714 L13.1578947,15.5714286 Z M6.57894737,9.14285714 L11.8421053,9.14285714 L11.8421053,4 L6.57894737,4 L6.57894737,9.14285714 Z M13.1578947,4 L13.1578947,9.14285714 L18.4210526,9.14285714 L18.4210526,4 L13.1578947,4 Z M19.7368421,15.5714286 L25,15.5714286 L25,10.4285714 L19.7368421,10.4285714 L19.7368421,15.5714286 Z M0,22 L5.26315789,22 L5.26315789,16.8571429 L0,16.8571429 L0,22 Z M6.57894737,22 L11.8421053,22 L11.8421053,16.8571429 L6.57894737,16.8571429 L6.57894737,22 Z M13.1578947,22 L18.4210526,22 L18.4210526,16.8571429 L13.1578947,16.8571429 L13.1578947,22 Z M19.7368421,22 L25,22 L25,16.8571429 L19.7368421,16.8571429 L19.7368421,22 Z M19.7368421,4 L19.7368421,9.14285714 L25,9.14285714 L25,4 L19.7368421,4 Z" id="path-1"></path>
    </defs>
    <g id="Icon/Dark//Datasett" stroke="none" stroke-width="1" fill="none" fill-rule="evenodd">
        <mask id="mask-2" fill="white">
            <use xlink:href="#path-1"></use>
        </mask>
        <use id="Shape" fill="#382B53" fill-rule="nonzero" xlink:href="#path-1"></use>
    </g>
</svg>