<?xml version="1.0" encoding="UTF-8" standalone="no"?>
<svg
   xmlns:dc="http://purl.org/dc/elements/1.1/"
   xmlns:cc="http://creativecommons.org/ns#"
   xmlns:rdf="http://www.w3.org/1999/02/22-rdf-syntax-ns#"
   xmlns:svg="http://www.w3.org/2000/svg"
   xmlns="http://www.w3.org/2000/svg"
   id="svg4619"
   version="1.1"
   viewBox="0 0 46.831252 54.504165"
   height="206"
   width="177">
  <defs
     id="defs4613">
    <clipPath
       id="clipPath3789"
       clipPathUnits="userSpaceOnUse">
      <path
         style="clip-rule:evenodd"
         id="path3787"
         d="m 1880.249,1516.074 c 0.023,-0.108 0.054,-0.212 0.076,-0.321 0.171,-0.866 0.247,-1.737 0.247,-2.603 0,-0.99 -0.106,-1.97 -0.323,-2.923 l 7.529,-0.012 v 2.924 l 0.01,2.924 -7.54,0.011 z" />
    </clipPath>
    <clipPath
       id="clipPath3795"
       clipPathUnits="userSpaceOnUse">
      <path
         id="path3793"
         d="M 0,0 H 3840 V 2160 H 0 Z" />
    </clipPath>
    <clipPath
       id="clipPath3805"
       clipPathUnits="userSpaceOnUse">
      <path
         style="clip-rule:evenodd"
         id="path3803"
         d="m 1925.201,1513.084 c 0,0.999 0.115,1.979 0.33,2.923 l -32.618,0.048 -0.01,-2.924 v -2.923 l 32.62,-0.049 c -0.024,0.109 -0.054,0.212 -0.076,0.321 -0.173,0.873 -0.247,1.744 -0.246,2.604" />
    </clipPath>
    <clipPath
       id="clipPath3811"
       clipPathUnits="userSpaceOnUse">
      <path
         id="path3809"
         d="M 0,0 H 3840 V 2160 H 0 Z" />
    </clipPath>
    <clipPath
       id="clipPath3821"
       clipPathUnits="userSpaceOnUse">
      <path
         style="clip-rule:evenodd"
         id="path3819"
         d="m 1961.976,1481.663 c -0.283,0.716 -0.513,1.47 -0.671,2.263 -0.193,0.978 -0.264,1.961 -0.241,2.937 l -45.147,-11.646 5.117,-4.675 40.076,10.337 1.073,0.276 c -0.074,0.166 -0.14,0.338 -0.207,0.508" />
    </clipPath>
    <clipPath
       id="clipPath3827"
       clipPathUnits="userSpaceOnUse">
      <path
         id="path3825"
         d="M 0,0 H 3840 V 2160 H 0 Z" />
    </clipPath>
    <clipPath
       id="clipPath3837"
       clipPathUnits="userSpaceOnUse">
      <path
         style="clip-rule:evenodd"
         id="path3835"
         d="m 1890.372,1527.625 -2.567,-2.326 -0.017,-9.237 -0.01,-2.923 v -2.924 l -0.017,-9.268 2.558,-2.337 2.558,-2.338 0.026,13.936 v 2.923 l 0.01,2.924 0.025,13.896 -2.567,-2.326 z" />
    </clipPath>
    <clipPath
       id="clipPath3843"
       clipPathUnits="userSpaceOnUse">
      <path
         id="path3841"
         d="M 0,0 H 3840 V 2160 H 0 Z" />
    </clipPath>
    <clipPath
       id="clipPath3853"
       clipPathUnits="userSpaceOnUse">
      <path
         style="clip-rule:evenodd"
         id="path3851"
         d="m 1890.305,1491.129 -2.558,2.338 -0.027,-15.05 v -1.453 c 0.092,0.026 0.18,0.063 0.274,0.086 0.092,0.024 0.187,0.033 0.28,0.054 0.658,0.148 1.325,0.237 1.993,0.237 0.01,0 0.011,-10e-4 0.016,-10e-4 0.883,0 1.741,-0.13 2.562,-0.369 l 0.021,11.821 -2.558,2.337 z" />
    </clipPath>
    <clipPath
       id="clipPath3859"
       clipPathUnits="userSpaceOnUse">
      <path
         id="path3857"
         d="M 0,0 H 3840 V 2160 H 0 Z" />
    </clipPath>
    <clipPath
       id="clipPath3869"
       clipPathUnits="userSpaceOnUse">
      <path
         style="clip-rule:evenodd"
         id="path3867"
         d="m 1892.7,1549.184 c -0.746,-0.192 -1.511,-0.29 -2.273,-0.29 0,0 -0.011,0 -0.017,0 -0.688,0 -1.36,0.087 -2.012,0.235 -0.184,0.041 -0.369,0.082 -0.549,0.135 v -1.434 l -0.028,-15.05 2.566,2.325 2.567,2.326 0.022,11.84 c -0.092,-0.026 -0.181,-0.063 -0.274,-0.087" />
    </clipPath>
    <clipPath
       id="clipPath3875"
       clipPathUnits="userSpaceOnUse">
      <path
         id="path3873"
         d="M 0,0 H 3840 V 2160 H 0 Z" />
    </clipPath>
    <clipPath
       id="clipPath3885"
       clipPathUnits="userSpaceOnUse">
      <path
         style="clip-rule:evenodd"
         id="path3883"
         d="m 1961.227,1545.02 -40.038,10.527 -5.134,-4.651 45.251,-11.898 c -0.042,1.761 0.277,3.499 0.917,5.112 0.077,0.196 0.154,0.392 0.243,0.584 z" />
    </clipPath>
    <clipPath
       id="clipPath3891"
       clipPathUnits="userSpaceOnUse">
      <path
         id="path3889"
         d="M 0,0 H 3840 V 2160 H 0 Z" />
    </clipPath>
    <clipPath
       id="clipPath3901"
       clipPathUnits="userSpaceOnUse">
      <path
         style="clip-rule:evenodd"
         id="path3899"
         d="m 1926.359,1566.902 c -0.085,0.189 -0.161,0.386 -0.237,0.582 l -0.992,-0.899 -10.329,-9.359 -5.134,-4.651 -16.715,-15.144 -2.566,-2.326 -2.567,-2.325 -10.329,-9.36 10.356,24.41 v 1.434 c -1.518,0.442 -2.901,1.273 -4.069,2.402 l -11.455,-26.997 c 1.544,-0.349 2.966,-1.088 4.182,-2.138 0.148,-0.129 0.294,-0.262 0.436,-0.399 1.163,-1.125 2.106,-2.547 2.741,-4.19 l 8.121,7.357 2.567,2.326 2.566,2.326 23.117,20.945 5.134,4.651 8.111,7.349 c -1.219,1.052 -2.231,2.412 -2.941,4.006" />
    </clipPath>
    <clipPath
       id="clipPath3907"
       clipPathUnits="userSpaceOnUse">
      <path
         id="path3905"
         d="M 0,0 H 3840 V 2160 H 0 Z" />
    </clipPath>
    <clipPath
       id="clipPath3917"
       clipPathUnits="userSpaceOnUse">
      <path
         style="clip-rule:evenodd"
         id="path3915"
         d="m 1921.034,1470.542 -5.117,4.676 -23.04,21.054 -2.558,2.337 -2.558,2.338 -8.1,7.402 c -0.197,-0.495 -0.412,-0.982 -0.671,-1.449 -0.576,-1.042 -1.282,-1.952 -2.085,-2.723 -0.144,-0.139 -0.293,-0.268 -0.444,-0.397 -1.145,-0.981 -2.463,-1.693 -3.902,-2.064 -0.093,-0.024 -0.187,-0.032 -0.28,-0.054 l 11.365,-27.072 c 1.17,1.124 2.554,1.932 4.073,2.374 v 1.453 l -10.268,24.458 10.296,-9.408 2.557,-2.338 2.559,-2.337 16.659,-15.224 5.117,-4.675 10.294,-9.408 1,-0.913 c 0.078,0.197 0.155,0.394 0.242,0.586 0.708,1.553 1.716,2.917 2.956,3.983 l -8.098,7.401 z" />
    </clipPath>
    <clipPath
       id="clipPath3923"
       clipPathUnits="userSpaceOnUse">
      <path
         id="path3921"
         d="M 0,0 H 3840 V 2160 H 0 Z" />
    </clipPath>
    <clipPath
       id="clipPath3933"
       clipPathUnits="userSpaceOnUse">
      <path
         style="clip-rule:evenodd"
         id="path3931"
         d="m 1895.344,1558.902 c -0.229,-0.842 -0.603,-1.62 -1.125,-2.265 -0.351,-0.435 -0.774,-0.791 -1.233,-1.092 -0.436,-0.285 -0.9,-0.524 -1.416,-0.657 -0.258,-0.067 -0.514,-0.078 -0.771,-0.099 -0.123,-0.01 -0.249,-0.048 -0.372,-0.048 -10e-4,0 0,10e-4 -0.01,10e-4 -0.916,10e-4 -1.794,0.289 -2.561,0.793 -0.665,0.438 -1.24,1.045 -1.682,1.78 -0.358,0.597 -0.632,1.271 -0.781,2.019 -0.629,3.173 1.116,6.327 3.897,7.044 0.383,0.099 0.766,0.146 1.143,0.146 1.463,0 2.836,-0.717 3.799,-1.912 0.509,-0.632 0.887,-1.407 1.117,-2.272 0.037,-0.138 0.086,-0.267 0.114,-0.409 0.207,-1.043 0.136,-2.076 -0.123,-3.029 v 0 z m 6.604,1.704 -1.234,0.324 c -0.017,0.757 -0.096,1.524 -0.248,2.291 -0.195,0.982 -0.493,1.91 -0.878,2.771 -1.72,3.863 -5.196,6.38 -9.151,6.38 -0.762,0 -1.527,-0.098 -2.273,-0.291 -2.68,-0.691 -4.964,-2.531 -6.431,-5.182 -1.467,-2.652 -1.941,-5.796 -1.335,-8.855 0.511,-2.579 1.728,-4.779 3.382,-6.379 1.168,-1.128 2.551,-1.959 4.069,-2.401 0.181,-0.053 0.365,-0.094 0.548,-0.136 0.653,-0.147 1.325,-0.232 2.014,-0.233 0,0 0.011,-10e-4 0.016,-10e-4 0.762,0 1.527,0.098 2.273,0.29 0.094,0.024 0.181,0.06 0.274,0.087 2.94,0.856 5.274,3.09 6.582,5.963 l 10.111,-2.659 5.134,4.651 z" />
    </clipPath>
    <clipPath
       id="clipPath3939"
       clipPathUnits="userSpaceOnUse">
      <path
         id="path3937"
         d="M 0,0 H 3840 V 2160 H 0 Z" />
    </clipPath>
    <clipPath
       id="clipPath3949"
       clipPathUnits="userSpaceOnUse">
      <path
         style="clip-rule:evenodd"
         id="path3947"
         d="m 1940.607,1571.355 c -0.279,-2.033 -1.484,-3.784 -3.213,-4.557 -0.24,-0.107 -0.48,-0.215 -0.74,-0.281 -0.383,-0.1 -0.766,-0.147 -1.143,-0.147 -0.663,0 -1.302,0.161 -1.899,0.433 -0.72,0.327 -1.374,0.826 -1.9,1.479 -0.589,0.732 -1.026,1.642 -1.231,2.681 -0.028,0.144 -0.027,0.285 -0.046,0.428 -0.119,0.899 -0.054,1.779 0.17,2.601 0.528,1.945 1.906,3.533 3.772,4.014 0.384,0.099 0.766,0.147 1.144,0.147 2.358,0 4.488,-1.857 5.03,-4.593 0.148,-0.747 0.154,-1.491 0.056,-2.205 m 4.943,3.495 c -1.068,5.387 -5.192,9.15 -10.029,9.15 -0.762,0 -1.527,-0.097 -2.273,-0.29 -2.681,-0.691 -4.964,-2.533 -6.432,-5.184 -0.998,-1.804 -1.524,-3.838 -1.575,-5.917 l -25.653,-6.617 c 0.385,-0.861 0.683,-1.789 0.878,-2.771 0.152,-0.767 0.231,-1.533 0.248,-2.291 l 1.234,-0.324 23.181,5.979 0.993,0.899 c 0.076,-0.196 0.153,-0.392 0.237,-0.582 0.71,-1.594 1.722,-2.953 2.941,-4.006 1.734,-1.499 3.888,-2.374 6.211,-2.374 0.762,0 1.526,0.098 2.273,0.291 1.439,0.37 2.757,1.083 3.902,2.063 0.989,0.847 1.849,1.892 2.529,3.119 0.258,0.468 0.475,0.955 0.671,1.45 0.917,2.312 1.162,4.886 0.664,7.405" />
    </clipPath>
    <clipPath
       id="clipPath3955"
       clipPathUnits="userSpaceOnUse">
      <path
         id="path3953"
         d="M 0,0 H 3840 V 2160 H 0 Z" />
    </clipPath>
    <clipPath
       id="clipPath3965"
       clipPathUnits="userSpaceOnUse">
      <path
         style="clip-rule:evenodd"
         id="path3963"
         d="m 1874.75,1510.235 c -0.069,-0.138 -0.141,-0.27 -0.22,-0.4 -0.57,-0.946 -1.38,-1.695 -2.361,-2.133 -0.24,-0.107 -0.481,-0.216 -0.74,-0.282 -0.383,-0.099 -0.766,-0.146 -1.143,-0.146 -0.128,0 -0.252,0.026 -0.379,0.036 -2.203,0.189 -4.139,1.969 -4.651,4.556 -0.629,3.173 1.116,6.326 3.897,7.044 0.258,0.066 0.514,0.078 0.771,0.098 0.124,0.011 0.249,0.048 0.371,0.048 0.664,0 1.303,-0.161 1.9,-0.432 0.946,-0.431 1.767,-1.171 2.35,-2.143 0.077,-0.128 0.146,-0.263 0.214,-0.399 0.249,-0.496 0.451,-1.032 0.567,-1.619 0.028,-0.143 0.027,-0.285 0.046,-0.428 0.039,-0.295 0.072,-0.588 0.072,-0.878 0,-0.303 -0.021,-0.604 -0.061,-0.898 -0.099,-0.722 -0.319,-1.403 -0.633,-2.024 m 5.575,5.518 c -0.022,0.109 -0.053,0.213 -0.077,0.321 -0.145,0.648 -0.333,1.272 -0.564,1.868 -0.635,1.643 -1.578,3.065 -2.741,4.19 -0.142,0.137 -0.288,0.27 -0.436,0.399 -1.216,1.05 -2.638,1.789 -4.182,2.138 -0.658,0.149 -1.335,0.235 -2.03,0.235 -0.761,0 -1.526,-0.098 -2.272,-0.29 -2.681,-0.692 -4.964,-2.533 -6.431,-5.184 -1.467,-2.651 -1.941,-5.795 -1.335,-8.853 1.067,-5.388 5.191,-9.151 10.029,-9.151 0.668,0 1.335,0.088 1.993,0.236 0.093,0.021 0.187,0.03 0.28,0.054 1.439,0.371 2.757,1.083 3.903,2.064 0.15,0.129 0.299,0.258 0.443,0.397 0.803,0.77 1.509,1.681 2.085,2.722 0.259,0.468 0.474,0.955 0.671,1.45 0.242,0.61 0.442,1.236 0.588,1.877 0.217,0.954 0.324,1.934 0.323,2.923 0,0.867 -0.076,1.738 -0.247,2.604" />
    </clipPath>
    <clipPath
       id="clipPath3971"
       clipPathUnits="userSpaceOnUse">
      <path
         id="path3969"
         d="M 0,0 H 3840 V 2160 H 0 Z" />
    </clipPath>
    <clipPath
       id="clipPath3981"
       clipPathUnits="userSpaceOnUse">
      <path
         style="clip-rule:evenodd"
         id="path3979"
         d="m 1895.272,1464.284 c -0.028,-0.14 -0.064,-0.277 -0.101,-0.413 -0.229,-0.842 -0.603,-1.62 -1.125,-2.266 -0.685,-0.846 -1.59,-1.475 -2.649,-1.749 -0.383,-0.098 -0.766,-0.146 -1.143,-0.146 -2.359,0 -4.488,1.857 -5.03,4.592 -0.331,1.669 0.01,3.322 0.796,4.63 0.432,0.717 1.007,1.313 1.686,1.757 0.435,0.285 0.899,0.525 1.415,0.658 0.383,0.098 0.766,0.146 1.143,0.146 0,0 0,0 0.01,0 0.125,-10e-4 0.248,-0.026 0.372,-0.037 0.781,-0.067 1.527,-0.322 2.188,-0.757 0.457,-0.3 0.874,-0.673 1.233,-1.119 0.508,-0.631 0.886,-1.406 1.117,-2.272 0.036,-0.137 0.086,-0.266 0.114,-0.408 0.177,-0.894 0.148,-1.78 -0.022,-2.616 v 0 z m 14.251,9.284 -10.108,-2.607 c -1.334,2.995 -3.723,5.179 -6.573,6.01 -0.821,0.239 -1.679,0.367 -2.562,0.369 0,0 -0.011,10e-4 -0.016,10e-4 -0.667,0 -1.336,-0.089 -1.993,-0.237 -0.093,-0.021 -0.188,-0.03 -0.28,-0.054 -0.093,-0.023 -0.182,-0.06 -0.274,-0.086 -1.519,-0.442 -2.903,-1.25 -4.073,-2.375 -0.802,-0.77 -1.508,-1.681 -2.084,-2.722 -1.467,-2.651 -1.941,-5.795 -1.335,-8.853 1.068,-5.388 5.192,-9.151 10.029,-9.151 0.762,0 1.527,0.097 2.273,0.29 2.68,0.691 4.964,2.532 6.431,5.183 0.156,0.282 0.295,0.572 0.428,0.865 0.404,0.884 0.698,1.813 0.891,2.766 0.152,0.751 0.238,1.515 0.257,2.287 l 1.241,0.32 12.865,3.319 z" />
    </clipPath>
    <clipPath
       id="clipPath3987"
       clipPathUnits="userSpaceOnUse">
      <path
         id="path3985"
         d="M 0,0 H 3840 V 2160 H 0 Z" />
    </clipPath>
    <clipPath
       id="clipPath3997"
       clipPathUnits="userSpaceOnUse">
      <path
         style="clip-rule:evenodd"
         id="path3995"
         d="m 1936.438,1448.014 c -0.383,-0.099 -0.766,-0.146 -1.143,-0.146 -2.236,0 -4.249,1.68 -4.916,4.184 -0.037,0.138 -0.086,0.267 -0.114,0.408 -0.148,0.748 -0.154,1.492 -0.057,2.206 0.02,0.139 0.05,0.274 0.078,0.412 0.204,1.001 0.62,1.927 1.227,2.678 0.517,0.639 1.168,1.135 1.909,1.465 0.24,0.108 0.48,0.217 0.74,0.284 0.383,0.098 0.765,0.146 1.143,0.146 0.663,0 1.302,-0.161 1.899,-0.432 1.526,-0.696 2.741,-2.195 3.131,-4.161 0.029,-0.144 0.027,-0.285 0.046,-0.429 0.398,-3.022 -1.288,-5.93 -3.943,-6.615 m 8.896,8.333 c -0.152,0.767 -0.372,1.495 -0.64,2.19 -0.714,1.844 -1.814,3.41 -3.178,4.588 -1.734,1.499 -3.889,2.373 -6.211,2.373 -0.762,0 -1.527,-0.098 -2.274,-0.29 -1.46,-0.376 -2.773,-1.1 -3.899,-2.067 -1.24,-1.065 -2.248,-2.43 -2.955,-3.983 -0.088,-0.192 -0.165,-0.389 -0.243,-0.586 l -1,0.913 -23.159,6.089 -1.241,-0.32 c -0.02,-0.772 -0.105,-1.536 -0.257,-2.287 -0.194,-0.953 -0.487,-1.881 -0.891,-2.766 l 25.632,-6.739 c 0.016,-0.758 0.096,-1.524 0.248,-2.29 1.068,-5.388 5.192,-9.151 10.029,-9.151 0.762,0 1.526,0.097 2.273,0.29 5.533,1.427 9.016,7.724 7.766,14.036" />
    </clipPath>
    <clipPath
       id="clipPath4003"
       clipPathUnits="userSpaceOnUse">
      <path
         id="path4001"
         d="M 0,0 H 3840 V 2160 H 0 Z" />
    </clipPath>
    <clipPath
       id="clipPath4013"
       clipPathUnits="userSpaceOnUse">
      <path
         style="clip-rule:evenodd"
         id="path4011"
         d="m 1972.478,1480.77 c -0.384,-0.099 -0.767,-0.146 -1.143,-0.146 -0.636,0 -1.252,0.144 -1.828,0.395 -0.749,0.326 -1.427,0.841 -1.971,1.516 -0.59,0.732 -1.026,1.642 -1.232,2.681 -0.022,0.113 -0.02,0.224 -0.036,0.336 -0.136,0.929 -0.071,1.844 0.16,2.693 0.528,1.947 1.907,3.533 3.773,4.015 0.383,0.099 0.766,0.146 1.143,0.146 2.359,0 4.488,-1.857 5.03,-4.593 0.629,-3.173 -1.116,-6.326 -3.896,-7.043 m 8.895,8.333 c -1.067,5.388 -5.191,9.15 -10.029,9.15 -0.761,0 -1.527,-0.098 -2.273,-0.289 -2.68,-0.691 -4.964,-2.532 -6.431,-5.184 -0.998,-1.804 -1.524,-3.839 -1.575,-5.917 -0.024,-0.976 0.047,-1.96 0.24,-2.936 0.158,-0.794 0.389,-1.548 0.671,-2.265 0.067,-0.17 0.133,-0.342 0.207,-0.507 l -1.072,-0.277 -19.595,-17.753 c 1.364,-1.178 2.464,-2.744 3.177,-4.588 l 20.489,18.563 c 1.725,-1.468 3.856,-2.324 6.153,-2.324 0.761,0 1.526,0.097 2.272,0.29 2.681,0.691 4.964,2.532 6.431,5.183 1.467,2.652 1.941,5.796 1.335,8.854" />
    </clipPath>
    <clipPath
       id="clipPath4019"
       clipPathUnits="userSpaceOnUse">
      <path
         id="path4017"
         d="M 0,0 H 3840 V 2160 H 0 Z" />
    </clipPath>
    <clipPath
       id="clipPath4029"
       clipPathUnits="userSpaceOnUse">
      <path
         style="clip-rule:evenodd"
         id="path4027"
         d="m 1972.478,1480.77 c -0.384,-0.099 -0.767,-0.146 -1.143,-0.146 -0.636,0 -1.252,0.144 -1.828,0.395 -0.749,0.326 -1.427,0.841 -1.971,1.516 -0.59,0.732 -1.026,1.642 -1.232,2.681 -0.022,0.113 -0.02,0.224 -0.036,0.336 -0.136,0.929 -0.071,1.844 0.16,2.693 0.528,1.947 1.907,3.533 3.773,4.015 0.383,0.099 0.766,0.146 1.143,0.146 2.359,0 4.488,-1.857 5.03,-4.593 0.629,-3.173 -1.116,-6.326 -3.896,-7.043 m -1.134,17.483 c -0.761,0 -1.527,-0.098 -2.273,-0.289 -2.68,-0.691 -4.964,-2.532 -6.431,-5.184 -0.998,-1.804 -1.524,-3.839 -1.575,-5.917 -0.024,-0.976 0.047,-1.96 0.24,-2.936 0.158,-0.794 0.389,-1.548 0.671,-2.265 0.067,-0.17 0.133,-0.342 0.207,-0.507 l -1.072,-0.277 4.071,-3.778 c 1.725,-1.468 3.856,-2.324 6.153,-2.324 0.761,0 1.526,0.097 2.272,0.29 2.681,0.691 4.964,2.532 6.431,5.183 1.467,2.652 1.941,5.796 1.335,8.854 -1.067,5.388 -5.191,9.15 -10.029,9.15 z" />
    </clipPath>
    <clipPath
       id="clipPath4035"
       clipPathUnits="userSpaceOnUse">
      <path
         id="path4033"
         d="M 0,0 H 3840 V 2160 H 0 Z" />
    </clipPath>
    <clipPath
       id="clipPath4045"
       clipPathUnits="userSpaceOnUse">
      <path
         style="clip-rule:evenodd"
         id="path4043"
         d="m 1972.731,1533.549 c -0.383,-0.099 -0.766,-0.146 -1.143,-0.146 -2.236,0 -4.249,1.679 -4.916,4.184 -0.036,0.137 -0.086,0.266 -0.114,0.408 -0.149,0.748 -0.155,1.491 -0.057,2.205 0.16,1.162 0.615,2.238 1.305,3.09 0.517,0.639 1.169,1.136 1.909,1.466 0.24,0.107 0.48,0.216 0.74,0.283 0.383,0.099 0.766,0.146 1.143,0.146 2.359,0 4.488,-1.857 5.03,-4.593 0.628,-3.172 -1.116,-6.326 -3.897,-7.043 m 8.896,8.333 c -1.067,5.388 -5.191,9.151 -10.029,9.151 -0.762,0 -1.527,-0.098 -2.273,-0.29 -1.439,-0.372 -2.757,-1.083 -3.903,-2.064 l -20.536,18.767 c -0.196,-0.496 -0.413,-0.983 -0.671,-1.45 -0.68,-1.228 -1.54,-2.273 -2.529,-3.12 l 19.541,-17.857 1.239,-0.325 c -0.088,-0.192 -0.165,-0.388 -0.243,-0.584 -0.64,-1.613 -0.959,-3.351 -0.917,-5.112 0.019,-0.764 0.102,-1.53 0.253,-2.292 1.068,-5.388 5.192,-9.151 10.029,-9.151 0.762,0 1.527,0.098 2.273,0.29 5.533,1.427 9.017,7.724 7.766,14.037" />
    </clipPath>
    <clipPath
       id="clipPath4051"
       clipPathUnits="userSpaceOnUse">
      <path
         id="path4049"
         d="M 0,0 H 3840 V 2160 H 0 Z" />
    </clipPath>
    <clipPath
       id="clipPath4061"
       clipPathUnits="userSpaceOnUse">
      <path
         style="clip-rule:evenodd"
         id="path4059"
         d="m 1971.588,1533.403 c -2.236,0 -4.249,1.679 -4.916,4.184 -0.036,0.137 -0.086,0.266 -0.114,0.408 -0.149,0.748 -0.155,1.491 -0.057,2.205 0.16,1.162 0.615,2.238 1.305,3.09 0.517,0.639 1.169,1.136 1.909,1.466 0.24,0.107 0.48,0.216 0.74,0.283 0.383,0.099 0.766,0.146 1.143,0.146 2.359,0 4.488,-1.857 5.03,-4.593 0.628,-3.172 -1.116,-6.326 -3.897,-7.043 -0.383,-0.099 -0.766,-0.146 -1.143,-0.146 z m 0.01,17.63 c -0.762,0 -1.527,-0.098 -2.273,-0.29 -1.439,-0.372 -2.757,-1.083 -3.903,-2.064 l -4.195,-3.66 1.239,-0.325 c -0.088,-0.192 -0.165,-0.388 -0.243,-0.584 -0.64,-1.613 -0.959,-3.351 -0.917,-5.112 0.019,-0.764 0.102,-1.53 0.253,-2.292 1.068,-5.388 5.192,-9.151 10.029,-9.151 0.762,0 1.527,0.098 2.273,0.29 5.533,1.427 9.017,7.724 7.766,14.037 -1.067,5.388 -5.191,9.151 -10.029,9.151 z" />
    </clipPath>
    <clipPath
       id="clipPath4067"
       clipPathUnits="userSpaceOnUse">
      <path
         id="path4065"
         d="M 0,0 H 3840 V 2160 H 0 Z" />
    </clipPath>
    <clipPath
       id="clipPath4077"
       clipPathUnits="userSpaceOnUse">
      <path
         style="clip-rule:evenodd"
         id="path4075"
         d="m 1936.619,1507.323 c -0.383,-0.098 -0.766,-0.146 -1.142,-0.146 -1.854,0 -3.552,1.156 -4.464,2.974 -0.249,0.496 -0.451,1.033 -0.567,1.618 -0.087,0.439 -0.119,0.875 -0.118,1.307 0,1.046 0.251,2.047 0.694,2.922 0.694,1.376 1.857,2.438 3.321,2.815 0.383,0.1 0.766,0.146 1.143,0.146 2.359,0 4.488,-1.856 5.03,-4.592 0.629,-3.173 -1.116,-6.327 -3.897,-7.044 m 8.896,8.334 c -1.067,5.388 -5.191,9.15 -10.029,9.15 -0.762,0 -1.527,-0.098 -2.273,-0.289 -3.878,-1.001 -6.742,-4.397 -7.681,-8.511 -0.216,-0.944 -0.33,-1.924 -0.331,-2.923 0,-0.859 0.073,-1.73 0.246,-2.603 0.022,-0.11 0.052,-0.214 0.077,-0.321 1.166,-5.214 5.213,-8.83 9.953,-8.83 0.761,0 1.526,0.097 2.272,0.29 2.681,0.691 4.964,2.532 6.431,5.183 1.467,2.652 1.941,5.796 1.335,8.854" />
    </clipPath>
    <clipPath
       id="clipPath4083"
       clipPathUnits="userSpaceOnUse">
      <path
         id="path4081"
         d="M 0,0 H 3840 V 2160 H 0 Z" />
    </clipPath>
  </defs>
  <metadata
     id="metadata4616">
    <rdf:RDF>
      <cc:Work
         rdf:about="">
        <dc:format>image/svg+xml</dc:format>
        <dc:type
           rdf:resource="http://purl.org/dc/dcmitype/StillImage" />
        <dc:title></dc:title>
      </cc:Work>
    </rdf:RDF>
  </metadata>
  <g
     transform="translate(0,-242.49587)"
     id="layer1">
    <g
       style="fill:#ffffff"
       transform="matrix(0.38423612,0,0,-0.38388893,-714.67919,850.57591)"
       id="g4289">
      <g
         id="g3783"
         style="fill:#ffffff">
        <g
           id="g3785"
           clip-path="url(#clipPath3789)"
           style="fill:#ffffff">
          <g
             id="g3791"
             clip-path="url(#clipPath3795)"
             style="fill:#ffffff">
            <path
               d="m 1870.249,1526.074 h 27.54 v -25.859 h -27.54 z"
               style="fill:#ffffff;fill-opacity:1;fill-rule:nonzero;stroke:none"
               id="path3797" />
          </g>
        </g>
      </g>
      <g
         id="g3799"
         style="fill:#ffffff">
        <g
           id="g3801"
           clip-path="url(#clipPath3805)"
           style="fill:#ffffff">
          <g
             id="g3807"
             clip-path="url(#clipPath3811)"
             style="fill:#ffffff">
            <path
               d="m 1882.903,1526.055 h 52.628 v -25.896 h -52.628 z"
               style="fill:#ffffff;fill-opacity:1;fill-rule:nonzero;stroke:none"
               id="path3813" />
          </g>
        </g>
      </g>
      <g
         id="g3815"
         style="fill:#ffffff">
        <g
           id="g3817"
           clip-path="url(#clipPath3821)"
           style="fill:#ffffff">
          <g
             id="g3823"
             clip-path="url(#clipPath3827)"
             style="fill:#ffffff">
            <path
               d="m 1905.917,1496.863 h 66.266 v -36.321 h -66.266 z"
               style="fill:#ffffff;fill-opacity:1;fill-rule:nonzero;stroke:none"
               id="path3829" />
          </g>
        </g>
      </g>
      <g
         id="g3831"
         style="fill:#ffffff">
        <g
           id="g3833"
           clip-path="url(#clipPath3837)"
           style="fill:#ffffff">
          <g
             id="g3839"
             clip-path="url(#clipPath3843)"
             style="fill:#ffffff">
            <path
               d="m 1877.761,1539.951 h 25.178 v -53.679 h -25.178 z"
               style="fill:#ffffff;fill-opacity:1;fill-rule:nonzero;stroke:none"
               id="path3845" />
          </g>
        </g>
      </g>
      <g
         id="g3847"
         style="fill:#ffffff">
        <g
           id="g3849"
           clip-path="url(#clipPath3853)"
           style="fill:#ffffff">
          <g
             id="g3855"
             clip-path="url(#clipPath3859)"
             style="fill:#ffffff">
            <path
               d="m 1877.717,1503.467 h 25.146 v -36.503 h -25.146 z"
               style="fill:#ffffff;fill-opacity:1;fill-rule:nonzero;stroke:none"
               id="path3861" />
          </g>
        </g>
      </g>
      <g
         id="g3863"
         style="fill:#ffffff">
        <g
           id="g3865"
           clip-path="url(#clipPath3869)"
           style="fill:#ffffff">
          <g
             id="g3871"
             clip-path="url(#clipPath3875)"
             style="fill:#ffffff">
            <path
               d="m 1877.819,1559.271 h 25.155 v -36.491 h -25.155 z"
               style="fill:#ffffff;fill-opacity:1;fill-rule:nonzero;stroke:none"
               id="path3877" />
          </g>
        </g>
      </g>
      <g
         id="g3879"
         style="fill:#ffffff">
        <g
           id="g3881"
           clip-path="url(#clipPath3885)"
           style="fill:#ffffff">
          <g
             id="g3887"
             clip-path="url(#clipPath3891)"
             style="fill:#ffffff">
            <path
               d="m 1906.055,1565.547 h 66.411 v -36.549 h -66.411 z"
               style="fill:#ffffff;fill-opacity:1;fill-rule:nonzero;stroke:none"
               id="path3893" />
          </g>
        </g>
      </g>
      <g
         id="g3895"
         style="fill:#ffffff">
        <g
           id="g3897"
           clip-path="url(#clipPath3901)"
           style="fill:#ffffff">
          <g
             id="g3903"
             clip-path="url(#clipPath3907)"
             style="fill:#ffffff">
            <path
               d="m 1862.325,1577.484 h 76.975 v -69.542 h -76.975 z"
               style="fill:#ffffff;fill-opacity:1;fill-rule:nonzero;stroke:none"
               id="path3909" />
          </g>
        </g>
      </g>
      <g
         id="g3911"
         style="fill:#ffffff">
        <g
           id="g3913"
           clip-path="url(#clipPath3917)"
           style="fill:#ffffff">
          <g
             id="g3919"
             clip-path="url(#clipPath3923)"
             style="fill:#ffffff">
            <path
               d="m 1862.279,1518.349 h 76.853 v -69.777 h -76.853 z"
               style="fill:#ffffff;fill-opacity:1;fill-rule:nonzero;stroke:none"
               id="path3925" />
          </g>
        </g>
      </g>
      <g
         id="g3927"
         style="fill:#ffffff">
        <g
           id="g3929"
           clip-path="url(#clipPath3933)"
           style="fill:#ffffff">
          <g
             id="g3935"
             clip-path="url(#clipPath3939)"
             style="fill:#ffffff">
            <path
               d="m 1870.141,1582.372 h 54.66 v -43.478 h -54.66 z"
               style="fill:#ffffff;fill-opacity:1;fill-rule:nonzero;stroke:none"
               id="path3941" />
          </g>
        </g>
      </g>
      <g
         id="g3943"
         style="fill:#ffffff">
        <g
           id="g3945"
           clip-path="url(#clipPath3949)"
           style="fill:#ffffff">
          <g
             id="g3951"
             clip-path="url(#clipPath3955)"
             style="fill:#ffffff">
            <path
               d="m 1889.588,1594 h 66.215 v -43.478 h -66.215 z"
               style="fill:#ffffff;fill-opacity:1;fill-rule:nonzero;stroke:none"
               id="path3957" />
          </g>
        </g>
      </g>
      <g
         id="g3959"
         style="fill:#ffffff">
        <g
           id="g3961"
           clip-path="url(#clipPath3965)"
           style="fill:#ffffff">
          <g
             id="g3967"
             clip-path="url(#clipPath3971)"
             style="fill:#ffffff">
            <path
               d="m 1850,1534.904 h 40.572 v -43.478 H 1850 Z"
               style="fill:#ffffff;fill-opacity:1;fill-rule:nonzero;stroke:none"
               id="path3973" />
          </g>
        </g>
      </g>
      <g
         id="g3975"
         style="fill:#ffffff">
        <g
           id="g3977"
           clip-path="url(#clipPath3981)"
           style="fill:#ffffff">
          <g
             id="g3983"
             clip-path="url(#clipPath3987)"
             style="fill:#ffffff">
            <path
               d="m 1869.968,1487.341 h 54.672 v -43.478 h -54.672 z"
               style="fill:#ffffff;fill-opacity:1;fill-rule:nonzero;stroke:none"
               id="path3989" />
          </g>
        </g>
      </g>
      <g
         id="g3991"
         style="fill:#ffffff">
        <g
           id="g3993"
           clip-path="url(#clipPath3997)"
           style="fill:#ffffff">
          <g
             id="g3999"
             clip-path="url(#clipPath4003)"
             style="fill:#ffffff">
            <path
               d="m 1889.386,1475.574 h 66.202 v -43.553 h -66.202 z"
               style="fill:#ffffff;fill-opacity:1;fill-rule:nonzero;stroke:none"
               id="path4005" />
          </g>
        </g>
      </g>
      <g
         id="g4007"
         style="fill:#ffffff">
        <g
           id="g4009"
           clip-path="url(#clipPath4013)"
           style="fill:#ffffff">
          <g
             id="g4015"
             clip-path="url(#clipPath4019)"
             style="fill:#ffffff">
            <path
               d="m 1931.516,1508.253 h 60.114 v -59.716 h -60.114 z"
               style="fill:#ffffff;fill-opacity:1;fill-rule:nonzero;stroke:none"
               id="path4021" />
          </g>
        </g>
      </g>
      <g
         id="g4023"
         style="fill:#ffffff">
        <g
           id="g4025"
           clip-path="url(#clipPath4029)"
           style="fill:#ffffff">
          <g
             id="g4031"
             clip-path="url(#clipPath4035)"
             style="fill:#ffffff">
            <path
               d="m 1951.06,1508.253 h 40.57 v -43.477 h -40.57 z"
               style="fill:#ffffff;fill-opacity:1;fill-rule:nonzero;stroke:none"
               id="path4037" />
          </g>
        </g>
      </g>
      <g
         id="g4039"
         style="fill:#ffffff">
        <g
           id="g4041"
           clip-path="url(#clipPath4045)"
           style="fill:#ffffff">
          <g
             id="g4047"
             clip-path="url(#clipPath4051)"
             style="fill:#ffffff">
            <path
               d="m 1931.686,1577.446 h 60.195 v -59.891 h -60.195 z"
               style="fill:#ffffff;fill-opacity:1;fill-rule:nonzero;stroke:none"
               id="path4053" />
          </g>
        </g>
      </g>
      <g
         id="g4055"
         style="fill:#ffffff">
        <g
           id="g4057"
           clip-path="url(#clipPath4061)"
           style="fill:#ffffff">
          <g
             id="g4063"
             clip-path="url(#clipPath4067)"
             style="fill:#ffffff">
            <path
               d="m 1951.227,1561.033 h 40.654 v -43.478 h -40.654 z"
               style="fill:#ffffff;fill-opacity:1;fill-rule:nonzero;stroke:none"
               id="path4069" />
          </g>
        </g>
      </g>
      <g
         id="g4071"
         style="fill:#ffffff">
        <g
           id="g4073"
           clip-path="url(#clipPath4077)"
           style="fill:#ffffff">
          <g
             id="g4079"
             clip-path="url(#clipPath4083)"
             style="fill:#ffffff">
            <path
               d="m 1915.201,1534.807 h 40.571 v -43.477 h -40.571 z"
               style="fill:#ffffff;fill-opacity:1;fill-rule:nonzero;stroke:none"
               id="path4085" />
          </g>
        </g>
      </g>
    </g>
  </g>
</svg>
