<?xml version="1.0" encoding="UTF-8"?>
<svg width="25px" height="25px" viewBox="0 0 25 25" version="1.1" xmlns="http://www.w3.org/2000/svg" xmlns:xlink="http://www.w3.org/1999/xlink">
    <!-- Generator: Sketch 54.1 (76490) - https://sketchapp.com -->
    <title>Icon/Dark/Modell</title>
    <desc>Created with Sketch.</desc>
    <g id="Icon/Dark/Modell" stroke="none" stroke-width="1" fill="none" fill-rule="evenodd">
        <path d="M13.0681818,17.1 C10.8715947,17.1 9.09090909,15.2979461 9.09090909,13.075 C9.09090909,10.8520539 10.8715947,9.05 13.0681818,9.05 C15.2647689,9.05 17.0454545,10.8520539 17.0454545,13.075 C17.0454545,15.2979461 15.2647689,17.1 13.0681818,17.1 Z M9.65909091,5.6 C8.4038983,5.6 7.38636364,4.57025492 7.38636364,3.3 C7.38636364,2.02974508 8.4038983,1 9.65909091,1 C10.9142835,1 11.9318182,2.02974508 11.9318182,3.3 C11.9318182,4.57025492 10.9142835,5.6 9.65909091,5.6 Z M22.7272727,9.05 C21.4720801,9.05 20.4545455,8.02025492 20.4545455,6.75 C20.4545455,5.47974508 21.4720801,4.45 22.7272727,4.45 C23.9824653,4.45 25,5.47974508 25,6.75 C25,8.02025492 23.9824653,9.05 22.7272727,9.05 Z M2.27272727,15.375 C1.01753466,15.375 0,14.3452549 0,13.075 C0,11.8047451 1.01753466,10.775 2.27272727,10.775 C3.52791989,10.775 4.54545455,11.8047451 4.54545455,13.075 C4.54545455,14.3452549 3.52791989,15.375 2.27272727,15.375 Z M21.5909091,24 C20.3357165,24 19.3181818,22.9702549 19.3181818,21.7 C19.3181818,20.4297451 20.3357165,19.4 21.5909091,19.4 C22.8461017,19.4 23.8636364,20.4297451 23.8636364,21.7 C23.8636364,22.9702549 22.8461017,24 21.5909091,24 Z M19.3181818,19.4 L16.4772727,16.525 L19.3181818,19.4 Z M20.4545455,8.475 L17.0454545,10.775 L20.4545455,8.475 Z M10.7335264,5.86104454 L11.4673583,7.31855347 L12.2681769,8.90910879 L10.7335264,5.86104454 Z M4.54545455,13.075 L9.09090909,13.075 L4.54545455,13.075 Z" id="Combined-Shape" stroke="#382B53" stroke-width="2.27272727"></path>
    </g>
</svg>