<?xml version="1.0" encoding="utf-8"?>
<!-- Generator: Adobe Illustrator 23.0.0, SVG Export Plug-In . SVG Version: 6.00 Build 0)  -->
<svg version="1.1" id="Capa_1" xmlns="http://www.w3.org/2000/svg" xmlns:xlink="http://www.w3.org/1999/xlink" x="0px" y="0px"
	 viewBox="0 0 60 60" style="enable-background:new 0 0 60 60;" xml:space="preserve">
<style type="text/css">
	.st0{fill:#CECECE;stroke:#CECECE;stroke-width:3;stroke-miterlimit:10;}
</style>
<path class="st0" d="M59.1,3.7l-2.8-2.9c-1.2-1.2-3.1-1.2-4.2,0L48.9,4H0v56h56V11.1l0.3-0.3l0,0L59.1,8C60.3,6.8,60.3,4.9,59.1,3.7
	z M20,36.8l3.2,3.2l-4.4,1.2L20,36.8z M52.1,12.2L47.8,8l1.4-1.4l4.2,4.2L52.1,12.2z M50.6,13.6L25.2,39.1l-4.2-4.2L46.4,9.4
	L50.6,13.6z M54,13.1V58H2V6h44.9L18.8,34.1l-0.2,0.2l-2.1,7.8l-1.2,1.2c-0.4,0.4-0.4,1,0,1.4c0.2,0.2,0.5,0.3,0.7,0.3
	s0.5-0.1,0.7-0.3l1.2-1.2l7.8-2.1L52.1,15l0,0l0.4-0.4L54,13.1z M57.7,6.5l-2.8,2.8l-4.2-4.2l2.8-2.8c0.4-0.4,1-0.4,1.4,0l2.8,2.8
	C58.1,5.5,58.1,6.2,57.7,6.5z"/>
</svg>
