<?xml version="1.0" encoding="utf-8"?>
<!-- Generator: Adobe Illustrator 23.0.0, SVG Export Plug-In . SVG Version: 6.00 Build 0)  -->
<svg version="1.1" id="Capa_1" xmlns="http://www.w3.org/2000/svg" xmlns:xlink="http://www.w3.org/1999/xlink" x="0px" y="0px"
	 viewBox="0 0 512 512" style="enable-background:new 0 0 512 512;" xml:space="preserve">
<g>
	<g>
		<path d="M155.3,57.1c-51.5,0-93.5,44.4-93.5,99.1s41.9,99.1,93.5,99.1s93.5-44.4,93.5-99.1S206.9,57.1,155.3,57.1z"/>
	</g>
</g>
<g>
	<g>
		<path d="M367.8,71.3c-0.2,0-0.4,0-0.6,0c-21.6,0.2-41.8,9.3-56.9,25.7c-14.8,16.1-22.8,37.4-22.6,59.9
			c0.2,22.5,8.6,43.6,23.6,59.5c15.2,16,35.3,24.8,56.7,24.8c0.2,0,0.4,0,0.6,0c21.6-0.2,41.8-9.3,56.9-25.7
			c14.8-16.1,22.8-37.4,22.6-59.9C447.7,109,411.7,71.3,367.8,71.3z"/>
	</g>
</g>
<g>
	<g>
		<path d="M371.7,257.4H364c-36.1,0-69.1,13.7-94,36.3c6.2,4.8,12.2,10,17.8,15.6c16.6,16.6,29.6,35.9,38.7,57.4
			c8.2,19.4,12.9,39.8,14,60.8H512v-29.9C512,320.3,449.1,257.4,371.7,257.4z"/>
	</g>
</g>
<g>
	<g>
		<path d="M310.4,427.5c-2.8-45.6-25.9-85.7-60.4-111.4c-25.1-18.7-56.2-29.8-89.9-29.8h-9.3C67.4,286.3,0,353.8,0,437v17.9h310.6
			V437C310.6,433.8,310.5,430.6,310.4,427.5z"/>
	</g>
</g>
</svg>
