<?xml version="1.0" encoding="UTF-8"?>
<svg width="25px" height="25px" viewBox="0 0 25 25" version="1.1" xmlns="http://www.w3.org/2000/svg" xmlns:xlink="http://www.w3.org/1999/xlink">
    <!-- Generator: Sketch 54.1 (76490) - https://sketchapp.com -->
    <title>Icon/Dark/Fasit</title>
    <desc>Created with Sketch.</desc>
    <g id="Icon/Dark/Fasit" stroke="none" stroke-width="1" fill="none" fill-rule="evenodd">
        <path d="M5.5,0 C4.125,0 3.0125,1.125 3.0125,2.5 L3,22.5 C3,23.875 4.1125,25 5.4875,25 L20.5,25 C21.875,25 23,23.875 23,22.5 L23,7.5 L15.5,0 L5.5,0 Z" id="Path" fill="#382B53" fill-rule="nonzero"></path>
        <path d="M13.3409091,15.8 C12.0229568,15.8 10.9545455,14.7030976 10.9545455,13.35 C10.9545455,11.9969024 12.0229568,10.9 13.3409091,10.9 C14.6588613,10.9 15.7272727,11.9969024 15.7272727,13.35 C15.7272727,14.7030976 14.6588613,15.8 13.3409091,15.8 Z M11.2954545,8.8 C10.542339,8.8 9.93181818,8.17319865 9.93181818,7.4 C9.93181818,6.62680135 10.542339,6 11.2954545,6 C12.0485701,6 12.6590909,6.62680135 12.6590909,7.4 C12.6590909,8.17319865 12.0485701,8.8 11.2954545,8.8 Z M19.1363636,10.9 C18.3832481,10.9 17.7727273,10.2731986 17.7727273,9.5 C17.7727273,8.72680135 18.3832481,8.1 19.1363636,8.1 C19.8894792,8.1 20.5,8.72680135 20.5,9.5 C20.5,10.2731986 19.8894792,10.9 19.1363636,10.9 Z M6.86363636,14.75 C6.1105208,14.75 5.5,14.1231986 5.5,13.35 C5.5,12.5768014 6.1105208,11.95 6.86363636,11.95 C7.61675193,11.95 8.22727273,12.5768014 8.22727273,13.35 C8.22727273,14.1231986 7.61675193,14.75 6.86363636,14.75 Z M18.4545455,20 C17.7014299,20 17.0909091,19.3731986 17.0909091,18.6 C17.0909091,17.8268014 17.7014299,17.2 18.4545455,17.2 C19.207661,17.2 19.8181818,17.8268014 19.8181818,18.6 C19.8181818,19.3731986 19.207661,20 18.4545455,20 Z M17.0909091,17.2 L15.3863636,15.45 L17.0909091,17.2 Z M17.7727273,10.55 L15.7272727,11.95 L17.7727273,10.55 Z M11.9401159,8.95889667 L12.8609062,10.8142401 L12.380415,9.84607602 L11.9401159,8.95889667 Z M8.22727273,13.35 L10.9545455,13.35 L8.22727273,13.35 Z" id="Combined-Shape" stroke="#FFFFFF" stroke-width="1.36363636"></path>
    </g>
</svg>