<?xml version="1.0" encoding="utf-8"?>
<!-- Generator: Adobe Illustrator 23.0.0, SVG Export Plug-In . SVG Version: 6.00 Build 0)  -->
<svg version="1.1" id="Capa_1" xmlns="http://www.w3.org/2000/svg" xmlns:xlink="http://www.w3.org/1999/xlink" x="0px" y="0px"
	 viewBox="0 0 475.1 475.1" style="enable-background:new 0 0 475.1 475.1;" xml:space="preserve">
<style type="text/css">
	.st0{fill:#FFFFFF;}
</style>
<path d="M450.8,596.5c-12.6-12.6-27.6-18.8-45.1-18.8H213.8v-9.1c0-17.5-6.3-32.5-18.8-45.1c-12.6-12.6-27.6-18.8-45.1-18.8H58.5
	c-17.5,0-32.6,6.3-45.1,18.8C0.8,536-5.5,551-5.5,568.6v274.1c0,17.5,6.3,32.5,18.8,45.1c12.6,12.6,27.6,18.8,45.1,18.8h347.2
	c17.5,0,32.6-6.3,45.1-18.8c12.6-12.6,18.8-27.6,18.8-45.1v-201C469.6,624.1,463.3,609.1,450.8,596.5z"/>
<path class="st0" d="M-21.8,920.9H-81c0-100.6,0-201.2,0-301.8c0.2-4.9,1.4-27.1,15.2-44.1c18.1-22.4,41.8-16,44.1-15.4V920.9z"/>
<path class="st0" d="M-22.5,921.9l0.4,59.9c123.5-0.9,246.9-1.8,370.4-2.7c6-0.2,33.3-1.7,54-15.7c27.3-18.5,19.4-42.4,18.5-44.7
	L-22.5,921.9z"/>
<path class="st0" d="M-21.8,981.7c-11,0-21.9,0-32.9-0.1c-3.6-1.4-9.7-4.2-15.3-9.9c-8.2-8.3-10.6-17.8-11.4-21.8
	c0.1-17.2,0.2-34.4,0.3-51.6c19.7,0,39.5,0,59.2,0V981.7z"/>
<path class="st0" d="M-22,876.9c0.1,2.4,0.9,24.5,19.4,37.2c11.8,8.1,24.1,7.8,28.4,7.5l-47.5,2L-22,876.9z"/>
</svg>
