<?xml version="1.0" encoding="utf-8"?>
<!-- Generator: Adobe Illustrator 23.0.0, SVG Export Plug-In . SVG Version: 6.00 Build 0)  -->
<svg version="1.1" id="Capa_1" xmlns="http://www.w3.org/2000/svg" xmlns:xlink="http://www.w3.org/1999/xlink" x="0px" y="0px"
	 viewBox="0 0 497.2 497.2" style="enable-background:new 0 0 497.2 497.2;" xml:space="preserve">
<style type="text/css">
	.st0{fill:#382B53;}
</style>
<g>
	<path class="st0" d="M191.2,248.6c0-15.3,5.7-28.7,17.2-40.2s24.9-17.2,40.2-17.2L191.2,248.6z M174,265.8
		c-1.9-5.7-1.9-11.5-1.9-17.2c0-42.1,34.4-76.5,76.5-76.5c5.7,0,11.5,0,17.2,1.9l51.6-51.6c-21-5.7-44-7.7-68.9-7.7
		C76.5,114.7,0,248.6,0,248.6s30.6,53.5,97.5,93.7L174,265.8z M306,248.6L248.6,306c15.3,0,28.7-5.7,40.2-17.2
		C300.2,277.3,306,263.9,306,248.6z M399.7,154.9l-76.5,76.5c1.9,5.7,1.9,11.5,1.9,17.2c0,42.1-34.4,76.5-76.5,76.5
		c-5.7,0-11.5,0-17.2-1.9l-51.6,51.6c21,5.7,44,7.6,68.8,7.6c172.1,0,248.6-133.9,248.6-133.9S466.6,195.1,399.7,154.9z M401.4,76.9
		L76.9,401.4l18.9,18.9L420.4,95.7L401.4,76.9z"/>
</g>
</svg>
