<svg width="492" height="492" xmlns="http://www.w3.org/2000/svg">

 <g>
  <title>background</title>
  <rect fill="none" id="canvas_background" height="402" width="582" y="-1" x="-1"/>
 </g>
 <g>
  <title>Layer 1</title>
  <g id="svg_1" transform="rotate(-179.77, 246, 246) matrix(-0.9999, 3.67357e-16, 3.67357e-16, 0.9999, 491.975, 0.0246)">
   <g id="svg_2">
    <g id="svg_3">
     <path id="svg_4" fill="#050560" d="m198.608002,246.104004l184.056,-184.064003c5.067993,-5.056 7.855988,-11.816002 7.855988,-19.024002c0,-7.211998 -2.787994,-13.967999 -7.855988,-19.032l-16.127991,-16.119999c-5.059998,-5.072 -11.824005,-7.864 -19.032013,-7.864s-13.963989,2.792 -19.027985,7.864l-219.14801,219.143996c-5.084,5.080002 -7.868004,11.868011 -7.848,19.084c-0.020004,7.248001 2.759995,14.028 7.848,19.111984l218.944,218.932007c5.063995,5.072021 11.820007,7.864014 19.031982,7.864014c7.208008,0 13.96402,-2.791992 19.032013,-7.864014l16.123993,-16.119995c10.492004,-10.492004 10.492004,-27.571991 0,-38.059998l-183.85199,-183.85199z"/>
    </g>
   </g>
  </g>
 </g>
</svg>