<?xml version="1.0" encoding="utf-8"?>
<!-- Generator: Adobe Illustrator 23.0.0, SVG Export Plug-In . SVG Version: 6.00 Build 0)  -->
<svg version="1.1" id="Layer_1" xmlns="http://www.w3.org/2000/svg" xmlns:xlink="http://www.w3.org/1999/xlink" x="0px" y="0px"
	 viewBox="0 0 24 24" style="enable-background:new 0 0 24 24;" xml:space="preserve">
<style type="text/css">
	.st0{fill:#1B204E;}
</style>
<path class="st0" d="M24,3c0-0.6-0.4-1-1-1H1C0.4,2,0,2.4,0,3v2c0,0.6,0.4,1,1,1h22c0.6,0,1-0.4,1-1V3z"/>
<path class="st0" d="M24,11c0-0.6-0.2-1-0.6-1H9.6C9.3,10,9,10.4,9,11v2c0,0.6,0.2,1,0.6,1h13.7c0.4,0,0.6-0.4,0.6-1V11z"/>
<path class="st0" d="M24,19c0-0.6-0.1-1-0.3-1h-5.5c-0.2,0-0.3,0.4-0.3,1v2c0,0.6,0.1,1,0.3,1h5.5c0.2,0,0.3-0.4,0.3-1V19z"/>
</svg>
