<?xml version="1.0" encoding="utf-8"?>
<!-- Generator: Adobe Illustrator 23.0.0, SVG Export Plug-In . SVG Version: 6.00 Build 0)  -->
<svg version="1.1" id="Capa_1" xmlns="http://www.w3.org/2000/svg" xmlns:xlink="http://www.w3.org/1999/xlink" x="0px" y="0px"
	 viewBox="0 0 299 299" style="enable-background:new 0 0 299 299;" xml:space="preserve">
<path d="M266.6,206.3c-8.1,0-15.5,3-21.2,7.9L224,200c7-12.7,11-27.3,11-42.8c0-18.6-5.8-35.9-15.6-50.2l14.4-11.6
	c5.1,3.3,11.1,5.2,17.5,5.2c17.9,0,32.4-14.5,32.4-32.4s-14.5-32.4-32.4-32.4S219,50.3,219,68.2c0,6,1.6,11.5,4.4,16.3L210,95.4
	c-16.2-16.7-38.8-27-63.7-27c-21.8,0-41.8,7.9-57.3,21L60.2,60.8c2.9-4.8,4.6-10.5,4.6-16.5c0-17.9-14.5-32.4-32.4-32.4
	C14.5,11.9,0,26.4,0,44.3s14.5,32.4,32.4,32.4c6.4,0,12.4-1.9,17.4-5.1l28.6,28.3c-13.1,15.5-20.9,35.4-20.9,57.2
	c0,18.9,5.9,36.4,16.1,50.9l-27.1,22.6c-3.3-1.7-6.9-2.6-10.8-2.6c-13.1,0-23.8,10.7-23.8,23.8c0,13.1,10.7,23.8,23.8,23.8
	s23.8-10.7,23.8-23.8c0-3.7-0.9-7.3-2.4-10.4l26.2-21.8c16.1,16.3,38.5,26.4,63.1,26.4c11.6,0,22.7-2.2,32.9-6.3l6.7,13.4
	c-3.6,3.6-5.9,8.6-5.9,14.1c0,11,8.9,19.9,19.9,19.9s19.9-8.9,19.9-19.9s-8.9-19.9-19.9-19.9c-0.1,0-0.1,0-0.2,0l-7.2-14.3
	c8.9-5.4,16.7-12.4,23.2-20.5l21,14c-1.6,3.8-2.4,7.9-2.4,12.3c0,17.9,14.5,32.4,32.4,32.4s32.4-14.5,32.4-32.4
	C299,220.8,284.5,206.3,266.6,206.3z M251.4,50.8c9.6,0,17.4,7.8,17.4,17.4s-7.8,17.4-17.4,17.4S234,77.8,234,68.2
	S241.8,50.8,251.4,50.8z M35.5,260.5c-4.8,0-8.8-3.9-8.8-8.8s3.9-8.8,8.8-8.8c4.8,0,8.8,3.9,8.8,8.8S40.3,260.5,35.5,260.5z
	 M204.8,267.2c0,2.7-2.2,4.9-4.9,4.9s-4.9-2.2-4.9-4.9s2.2-4.9,4.9-4.9S204.8,264.4,204.8,267.2z M32.4,61.7
	c-9.6,0-17.4-7.8-17.4-17.4s7.8-17.4,17.4-17.4s17.4,7.8,17.4,17.4C49.8,53.9,42,61.7,32.4,61.7z M146.2,231
	c-40.7,0-73.8-33.1-73.8-73.8s33.1-73.8,73.8-73.8s73.8,33.1,73.8,73.8C220,197.8,186.9,231,146.2,231z M266.6,256.1
	c-9.6,0-17.4-7.8-17.4-17.4c0-9.6,7.8-17.4,17.4-17.4s17.4,7.8,17.4,17.4S276.2,256.1,266.6,256.1z"/>
</svg>
