<?xml version="1.0" encoding="UTF-8"?>
<svg width="25px" height="25px" viewBox="0 0 25 25" version="1.1" xmlns="http://www.w3.org/2000/svg" xmlns:xlink="http://www.w3.org/1999/xlink">
    <!-- Generator: Sketch 54.1 (76490) - https://sketchapp.com -->
    <title>Icon/Dark/Settings</title>
    <desc>Created with Sketch.</desc>
    <g id="Icon/Dark/Settings" stroke="none" stroke-width="1" fill="none" fill-rule="evenodd">
        <path d="M21.6802154,13.71875 C21.7265022,13.328125 21.75736,12.921875 21.75736,12.5 C21.75736,12.078125 21.7265022,11.671875 21.6647864,11.28125 L24.2722762,9.21875 C24.5037102,9.03125 24.5654259,8.6875 24.4265655,8.421875 L21.9579362,4.09375 C21.8036468,3.8125 21.4796392,3.71875 21.2019184,3.8125 L18.1315607,5.0625 C17.4835455,4.5625 16.8046724,4.15625 16.0486547,3.84375 L15.5857867,0.53125 C15.5394999,0.21875 15.277208,0 14.9686293,0 L10.0313707,0 C9.72279199,0 9.47592906,0.21875 9.42964226,0.53125 L8.96677426,3.84375 C8.21075652,4.15625 7.51645452,4.578125 6.88386826,5.0625 L3.81351052,3.8125 C3.53578971,3.703125 3.21178211,3.8125 3.05749278,4.09375 L0.588863442,8.421875 C0.434574108,8.703125 0.496289842,9.03125 0.743152776,9.21875 L3.35064251,11.28125 C3.28892678,11.671875 3.24263998,12.09375 3.24263998,12.5 C3.24263998,12.90625 3.27349785,13.328125 3.33521358,13.71875 L0.727723842,15.78125 C0.496289842,15.96875 0.434574108,16.3125 0.573434509,16.578125 L3.04206385,20.90625 C3.19635318,21.1875 3.52036078,21.28125 3.79808158,21.1875 L6.86843932,19.9375 C7.51645452,20.4375 8.19532759,20.84375 8.95134533,21.15625 L9.41421333,24.46875 C9.47592906,24.78125 9.72279199,25 10.0313707,25 L14.9686293,25 C15.277208,25 15.5394999,24.78125 15.5703577,24.46875 L16.0332257,21.15625 C16.7892435,20.84375 17.4835455,20.421875 18.1161317,19.9375 L21.1864895,21.1875 C21.4642103,21.296875 21.7882179,21.1875 21.9425072,20.90625 L24.4111366,16.578125 C24.5654259,16.296875 24.5037102,15.96875 24.2568472,15.78125 L21.6802154,13.71875 L21.6802154,13.71875 Z M12.5,17.1875 C9.95422599,17.1875 7.87131999,15.078125 7.87131999,12.5 C7.87131999,9.921875 9.95422599,7.8125 12.5,7.8125 C15.045774,7.8125 17.12868,9.921875 17.12868,12.5 C17.12868,15.078125 15.045774,17.1875 12.5,17.1875 Z" id="Shape" fill="#382B53" fill-rule="nonzero"></path>
    </g>
</svg>