<?xml version="1.0" encoding="UTF-8" standalone="no"?>
<svg
   xmlns:dc="http://purl.org/dc/elements/1.1/"
   xmlns:cc="http://creativecommons.org/ns#"
   xmlns:rdf="http://www.w3.org/1999/02/22-rdf-syntax-ns#"
   xmlns:svg="http://www.w3.org/2000/svg"
   xmlns="http://www.w3.org/2000/svg"
   xmlns:sodipodi="http://sodipodi.sourceforge.net/DTD/sodipodi-0.dtd"
   xmlns:inkscape="http://www.inkscape.org/namespaces/inkscape"
   version="1.1"
   id="Capa_1"
   x="0px"
   y="0px"
   width="512px"
   height="512px"
   viewBox="0 0 292.362 292.362"
   style="enable-background:new 0 0 292.362 292.362;"
   xml:space="preserve"
   class=""
   sodipodi:docname="triangle-right-lightgrey.svg"
   inkscape:version="0.92.3 (2405546, 2018-03-11)"><metadata
   id="metadata13"><rdf:RDF><cc:Work
       rdf:about=""><dc:format>image/svg+xml</dc:format><dc:type
         rdf:resource="http://purl.org/dc/dcmitype/StillImage" /><dc:title></dc:title></cc:Work></rdf:RDF></metadata><defs
   id="defs11" /><sodipodi:namedview
   pagecolor="#ffffff"
   bordercolor="#666666"
   borderopacity="1"
   objecttolerance="10"
   gridtolerance="10"
   guidetolerance="10"
   inkscape:pageopacity="0"
   inkscape:pageshadow="2"
   inkscape:window-width="689"
   inkscape:window-height="480"
   id="namedview9"
   showgrid="false"
   inkscape:zoom="0.4609375"
   inkscape:cx="256"
   inkscape:cy="256"
   inkscape:window-x="810"
   inkscape:window-y="1124"
   inkscape:window-maximized="0"
   inkscape:current-layer="Capa_1" /><g
   transform="matrix(6.12323e-17, -1, 1, 6.12323e-17, 0, 292.362)"
   id="g6"
   style="fill:#d6dde8;fill-opacity:1"><g
     id="g4"
     style="fill:#d6dde8;fill-opacity:1">
	<path
   d="M286.935,197.286L159.028,69.379c-3.613-3.617-7.895-5.424-12.847-5.424s-9.233,1.807-12.85,5.424L5.424,197.286   C1.807,200.9,0,205.184,0,210.132s1.807,9.233,5.424,12.847c3.621,3.617,7.902,5.428,12.85,5.428h255.813   c4.949,0,9.233-1.811,12.848-5.428c3.613-3.613,5.427-7.898,5.427-12.847S290.548,200.9,286.935,197.286z"
   data-original="#000000"
   class="active-path"
   fill="#000000"
   id="path2"
   style="fill:#d6dde8;fill-opacity:1" />
</g></g> </svg>